 <svg
                    xmlns="http://www.w3.org/2000/svg"
                    viewBox="0 0 24 24"
                    fill="currentColor"
                    style={{
                        width: '1.5rem', // w-6
                        height: '1.5rem', // h-6
                        color: '#4b5563', // text-gray-600
                    }}
                >
                    <path
                        fillRule="evenodd"
                        d="M10.5 6a1.5 1.5 0 1 1 3 0 1.5 1.5 0 0 1-3 0ZM12 11.25a.75.75 0 0 1 .75.75v4.5a.75.75 0 0 1-1.5 0V12a.75.75 0 0 1 .75-.75ZM12 3.75a.75.75 0 0 1 .75.75v.75a.75.75 0 0 1-1.5 0V4.5a.75.75 0 0 1 .75-.75ZM12 18a.75.75 0 0 1 .75.75v.75a.75.75 0 0 0-1.5 0V18.75a.75.75 0 0 0 .75-.75ZM6 10.5a1.5 1.5 0 1 1 0 3 1.5 1.5 0 0 1 0-3ZM18 10.5a1.5 1.5 0 1 1 0 3 1.5 1.5 0 0 1 0-3ZM3.75 12a.75.75 0 0 1 .75-.75h.75a.75.75 0 0 1 0 1.5H4.5a.75.75 0 0 1-.75-.75ZM18.75 12a.75.75 0 0 1 .75-.75h.75a.75.75 0 0 1 0 1.5h-.75a.75.75 0 0 1-.75-.75Z"
                        clipRule="evenodd"
                    />
                </svg>